<?xml version="1.0" standalone="no"?>
<!DOCTYPE svg PUBLIC "-//W3C//DTD SVG 20010904//EN"
 "http://www.w3.org/TR/2001/REC-SVG-20010904/DTD/svg10.dtd">
<svg version="1.0" xmlns="http://www.w3.org/2000/svg"
 width="512.000000pt" height="512.000000pt" viewBox="0 0 512.000000 512.000000"
 preserveAspectRatio="xMidYMid meet">
<metadata>
Created by potrace 1.14, written by Peter Selinger 2001-2017
</metadata>
<g transform="translate(0.000000,512.000000) scale(0.100000,-0.100000)"
fill="#000000" stroke="none">
<path d="M1920 4099 c-326 -23 -630 -180 -855 -443 -123 -145 -229 -373 -260
-561 -6 -39 -8 -41 -73 -64 -200 -71 -399 -221 -509 -386 -236 -352 -242 -797
-15 -1139 94 -142 282 -309 405 -360 37 -15 37 -15 37 -75 l0 -61 138 0 139 0
7 98 c32 471 308 944 711 1214 278 187 579 278 915 278 336 0 637 -91 915
-278 403 -270 679 -743 711 -1214 l7 -98 140 0 140 0 -6 113 -5 112 56 25 c86
37 199 117 278 195 328 325 376 837 113 1226 -112 167 -306 311 -502 374 l-67
22 -44 89 c-98 200 -268 366 -473 461 -128 59 -248 85 -398 86 -144 1 -216
-10 -342 -53 l-85 -29 -96 97 c-191 192 -391 301 -645 351 -120 23 -207 28
-337 20z m335 -358 c234 -62 414 -203 564 -444 l73 -117 37 22 c20 13 74 46
120 75 113 71 188 94 328 100 184 9 325 -35 455 -141 107 -87 180 -205 218
-356 12 -47 25 -88 28 -92 4 -4 51 -14 104 -22 181 -29 288 -84 401 -206 112
-121 157 -243 157 -425 0 -196 -45 -310 -175 -441 -67 -67 -171 -145 -179
-132 -1 1 -23 57 -49 123 -248 624 -821 1076 -1497 1181 -140 22 -420 22 -560
0 -579 -90 -1080 -429 -1377 -933 -63 -109 -140 -281 -173 -392 l-21 -72 -31
18 c-52 30 -171 157 -211 224 -60 102 -79 175 -84 324 -8 230 40 358 192 511
114 116 206 165 365 195 58 10 121 23 140 27 l35 7 8 130 c9 158 34 263 87
373 117 237 361 427 605 471 33 6 71 13 85 15 62 11 278 -3 355 -23z"/>
<path d="M2205 2320 c-307 -82 -578 -266 -768 -523 -107 -143 -216 -384 -241
-527 l-6 -36 172 -32 c95 -18 184 -33 196 -35 22 -2 26 6 48 81 26 90 84 214
136 290 51 77 207 224 291 276 88 55 171 91 267 116 36 10 65 21 65 26 0 38
-72 384 -80 383 -5 0 -41 -8 -80 -19z"/>
<path d="M2522 2284 c-16 -11 -22 -25 -22 -53 0 -33 7 -44 51 -84 37 -34 50
-52 47 -69 -6 -42 -68 -31 -68 12 0 13 -6 17 -20 13 -16 -4 -19 -11 -14 -27
11 -36 36 -56 69 -56 48 0 69 21 68 66 -1 34 -8 45 -53 85 -40 35 -51 51 -48
70 6 42 55 29 74 -19 3 -7 34 11 34 20 0 18 -50 58 -72 58 -13 0 -34 -7 -46
-16z"/>
<path d="M2734 2272 c-21 -14 -33 -49 -45 -135 -11 -72 -11 -88 1 -102 34 -41
100 -42 121 -3 13 24 39 148 39 186 0 46 -75 81 -116 54z m75 -39 c11 -21 -12
-168 -30 -189 -16 -20 -47 -17 -58 5 -10 18 9 167 24 191 10 16 54 11 64 -7z"/>
<path d="M2893 2111 c-37 -119 -39 -131 -22 -131 13 0 23 15 35 55 16 50 21
56 43 53 30 -4 40 18 12 27 -24 7 -25 11 -10 56 15 43 12 41 44 29 19 -7 32
-7 38 -1 11 11 -23 27 -73 38 -25 5 -27 1 -67 -126z"/>
<path d="M3066 2185 c-3 -8 3 -16 15 -20 10 -4 19 -10 19 -14 0 -5 -22 -55
-49 -112 -27 -57 -47 -107 -44 -111 12 -20 27 0 75 97 51 102 54 105 80 99 48
-10 31 14 -31 46 -47 23 -60 26 -65 15z"/>
<path d="M3186 1983 c-49 -102 -57 -126 -45 -133 10 -7 33 9 87 63 l74 72 -46
-86 c-25 -47 -46 -90 -46 -96 0 -32 35 -11 125 73 80 74 97 96 87 106 -10 10
-28 -3 -88 -62 l-76 -75 48 92 c40 74 47 94 36 104 -10 11 -27 -1 -88 -61
l-76 -75 46 86 c49 92 53 104 34 112 -8 3 -35 -41 -72 -120z"/>
<path d="M3387 1817 l-98 -92 39 -38 c27 -26 42 -35 47 -27 4 6 -2 22 -14 34
-12 12 -21 25 -21 28 0 3 16 18 36 33 33 25 36 26 54 10 24 -22 38 -1 16 24
-15 16 -13 20 18 50 l33 32 22 -27 c16 -21 24 -25 33 -16 9 9 4 20 -22 47 -19
19 -36 35 -39 35 -4 -1 -50 -42 -104 -93z"/>
<path d="M3498 1714 c-60 -41 -108 -81 -108 -88 0 -19 66 -86 84 -86 45 0 86
38 86 79 0 14 6 17 30 13 39 -6 70 21 70 60 0 25 -37 98 -50 98 -3 0 -53 -34
-112 -76z m127 6 c14 -28 14 -31 -5 -50 -25 -25 -45 -25 -71 1 l-21 21 39 28
c21 16 39 30 40 30 1 0 9 -13 18 -30z m-101 -69 c13 -25 13 -31 0 -50 -19 -27
-55 -27 -80 0 -17 18 -17 22 -3 29 9 5 27 18 40 29 13 11 25 20 26 21 1 0 9
-13 17 -29z"/>
<path d="M2445 1690 c-227 -41 -415 -176 -527 -377 -35 -64 -69 -169 -83 -260
l-7 -43 280 0 280 0 6 23 c13 52 105 117 166 117 61 0 153 -65 166 -117 l6
-23 280 0 280 0 -7 43 c-31 199 -116 353 -264 479 -65 56 -190 120 -276 143
-74 19 -233 27 -300 15z"/>
<path d="M3635 1485 c-65 -29 -121 -57 -123 -63 -7 -22 19 -21 73 3 56 24 57
24 62 5 3 -11 12 -20 20 -20 11 0 13 7 9 25 -5 20 -1 27 23 40 42 21 49 19 63
-15 9 -21 17 -27 26 -21 11 7 9 17 -10 53 l-23 45 -120 -52z"/>
<path d="M3486 1492 c-9 -14 9 -31 23 -23 7 5 10 14 7 20 -8 13 -23 14 -30 3z"/>
<path d="M3686 1344 c-65 -18 -121 -36 -124 -39 -3 -3 0 -11 6 -17 9 -9 25 -8
66 4 31 8 58 13 61 10 13 -14 1 -30 -50 -62 -52 -33 -63 -48 -49 -63 4 -3 29
9 56 28 45 30 56 33 102 29 63 -6 90 12 90 59 0 47 -13 87 -27 86 -6 -1 -65
-16 -131 -35z m128 -20 c8 -21 -10 -51 -36 -60 -16 -5 -27 -1 -40 16 -10 12
-18 25 -18 29 0 6 47 23 81 30 4 0 10 -6 13 -15z"/>
</g>
</svg>
